<svg xmlns="http://www.w3.org/2000/svg" xmlns:xlink="http://www.w3.org/1999/xlink" width="1080" zoomAndPan="magnify" viewBox="0 0 810 809.999993" height="1080" preserveAspectRatio="xMidYMid meet" version="1.0"><defs><g/><clipPath id="3cc03373c8"><path d="M 207.667969 81.027344 L 602.167969 81.027344 L 602.167969 581.972656 L 207.667969 581.972656 Z M 207.667969 81.027344 " clip-rule="nonzero"/></clipPath><clipPath id="55acb477c1"><path d="M 284 316 L 443 316 L 443 476.183594 L 284 476.183594 Z M 284 316 " clip-rule="nonzero"/></clipPath><clipPath id="caab0311e2"><path d="M 442 295.433594 L 527.03125 295.433594 L 527.03125 460 L 442 460 Z M 442 295.433594 " clip-rule="nonzero"/></clipPath></defs><rect x="-81" width="972" fill="#ffffff" y="-80.999999" height="971.999992" fill-opacity="1"/><rect x="-81" width="972" fill="#ffffff" y="-80.999999" height="971.999992" fill-opacity="1"/><rect x="-81" width="972" fill="#ffffff" y="-80.999999" height="971.999992" fill-opacity="1"/><g clip-path="url(#3cc03373c8)"><path fill="#21b861" d="M 590.140625 427.664062 C 586.59375 442.488281 580.867188 456.984375 573.558594 470.789062 C 566.214844 484.59375 556.886719 497.503906 546.15625 509.238281 C 524.539062 532.5625 496.5625 550.582031 465.898438 560.191406 C 450.597656 565.035156 434.648438 567.765625 418.75 568.53125 L 412.878906 568.664062 L 409.933594 568.71875 L 406.84375 568.632812 L 400.675781 568.457031 L 394.902344 568.003906 C 390.9375 567.789062 387.03125 567.144531 383.113281 566.664062 C 381.152344 566.445312 379.226562 565.992188 377.285156 565.667969 C 375.355469 565.289062 373.402344 565.027344 371.496094 564.550781 C 340.765625 557.914062 312.492188 543.382812 290.152344 523.734375 C 284.46875 518.921875 279.339844 513.605469 274.363281 508.269531 C 269.5625 502.78125 264.941406 497.210938 260.882812 491.328125 C 252.667969 479.65625 245.886719 467.355469 240.867188 454.757812 C 235.796875 442.183594 232.273438 429.414062 230.171875 416.871094 C 229.550781 413.75 229.253906 410.605469 228.851562 407.507812 C 228.394531 404.414062 228.292969 401.3125 228.039062 398.257812 C 227.734375 395.164062 227.816406 392.269531 227.707031 389.328125 C 227.558594 386.519531 227.765625 383.199219 227.824219 380.140625 C 228.289062 368.523438 229.824219 357.191406 232.132812 346.773438 C 234.496094 336.324219 237.765625 326.6875 241.339844 317.867188 C 244.898438 309.023438 249.207031 301.195312 253.304688 294.070312 C 257.675781 287.09375 261.898438 280.820312 266.199219 275.523438 C 274.644531 264.867188 282.507812 257.261719 287.667969 252.683594 C 288.878906 251.503906 290.292969 250.390625 291.417969 249.449219 C 292.507812 248.550781 293.421875 247.792969 294.175781 247.167969 C 335.695312 241.972656 377.605469 227.15625 402.292969 207.421875 C 407.355469 203.378906 412.199219 198.945312 416.835938 194.242188 C 417.324219 194.285156 418.167969 194.347656 419.359375 194.441406 C 421.355469 194.648438 424.339844 194.730469 428.1875 195.246094 C 435.894531 196.101562 447.191406 197.914062 461.066406 202.019531 C 462.8125 202.488281 464.578125 203.066406 466.371094 203.703125 C 468.171875 204.324219 470.019531 204.953125 471.90625 205.601562 C 473.777344 206.292969 475.664062 207.085938 477.605469 207.847656 C 479.550781 208.613281 481.53125 209.398438 483.496094 210.339844 C 491.496094 213.78125 499.765625 218.324219 508.265625 223.664062 C 525.238281 234.363281 542.589844 249.457031 557.492188 269.085938 C 564.929688 278.894531 571.714844 289.835938 577.441406 301.777344 C 583.140625 313.734375 587.71875 326.707031 590.859375 340.386719 C 594 354.03125 595.703125 368.535156 595.671875 383.089844 C 595.5625 397.953125 593.769531 412.835938 590.140625 427.664062 Z M 602.1875 383.195312 C 601.886719 367.828125 599.785156 353.128906 596.238281 339.085938 C 592.683594 325.074219 587.683594 311.863281 581.570312 299.75 C 575.429688 287.652344 568.242188 276.628906 560.4375 266.800781 C 544.796875 247.132812 526.835938 232.230469 509.429688 221.796875 C 500.714844 216.589844 492.261719 212.191406 484.117188 208.90625 C 482.113281 207.996094 480.101562 207.25 478.121094 206.523438 C 476.148438 205.796875 474.234375 205.046875 472.335938 204.390625 C 470.417969 203.785156 468.550781 203.1875 466.722656 202.609375 C 464.902344 202.007812 463.117188 201.46875 461.347656 201.035156 C 447.304688 197.222656 435.957031 195.664062 428.214844 194.976562 C 424.351562 194.546875 421.363281 194.535156 419.363281 194.375 C 418.175781 194.308594 417.335938 194.257812 416.84375 194.230469 C 460.597656 149.796875 484.878906 81.023438 484.878906 81.023438 C 375.382812 155.175781 266.875 100.457031 252.738281 235.601562 C 265.632812 211.699219 301.914062 166.03125 395.003906 151.472656 C 395.003906 151.472656 314.210938 182.433594 279.894531 228.066406 C 279.617188 228.3125 279.285156 228.59375 278.917969 228.914062 C 278.160156 229.570312 277.214844 230.390625 276.097656 231.363281 C 274.972656 232.34375 273.707031 233.378906 272.140625 234.921875 C 270.613281 236.390625 268.898438 238.03125 267.019531 239.832031 C 265.109375 241.632812 263.339844 243.679688 261.257812 245.851562 C 259.167969 247.988281 257.09375 250.441406 254.898438 253.066406 C 253.796875 254.378906 252.628906 255.707031 251.503906 257.128906 C 250.398438 258.578125 249.269531 260.066406 248.105469 261.597656 C 243.402344 267.675781 238.785156 274.84375 234.070312 282.800781 C 229.625 290.914062 225.015625 299.816406 221.238281 309.820312 C 217.441406 319.796875 214.039062 330.667969 211.664062 342.394531 C 209.339844 354.160156 207.921875 366.558594 207.695312 379.796875 C 207.25 405.757812 212.121094 434.421875 223.964844 461.84375 C 229.816406 475.589844 237.558594 488.929688 246.839844 501.503906 C 251.433594 507.832031 256.609375 513.820312 261.996094 519.683594 C 267.550781 525.390625 273.28125 531.046875 279.578125 536.15625 C 304.390625 556.992188 335.414062 572.03125 368.675781 578.421875 C 370.742188 578.882812 372.851562 579.128906 374.9375 579.488281 C 377.035156 579.789062 379.113281 580.21875 381.226562 580.414062 C 385.449219 580.839844 389.660156 581.425781 393.914062 581.570312 L 400.445312 581.921875 L 406.621094 581.957031 L 409.710938 581.972656 L 412.945312 581.847656 L 419.445312 581.558594 C 436.496094 580.359375 453.433594 577.054688 469.621094 571.527344 C 502.046875 560.558594 531.175781 540.785156 553.355469 515.746094 C 564.367188 503.15625 573.832031 489.386719 581.195312 474.773438 C 588.519531 460.15625 594.144531 444.894531 597.492188 429.394531 C 600.917969 413.953125 602.421875 398.246094 602.1875 383.195312 " fill-opacity="1" fill-rule="nonzero"/></g><g clip-path="url(#55acb477c1)"><path fill="#21b861" d="M 442.65625 459.253906 L 442.421875 458.933594 L 441.464844 457.574219 C 441.144531 457.109375 440.828125 456.648438 440.476562 456.214844 C 437.808594 452.683594 435.050781 449.238281 432.148438 445.941406 L 429.972656 443.480469 C 429.59375 443.074219 429.246094 442.640625 428.867188 442.265625 L 427.738281 441.078125 L 425.472656 438.707031 L 424.339844 437.519531 C 423.964844 437.144531 423.558594 436.765625 423.179688 436.363281 C 421.640625 434.828125 420.101562 433.292969 418.535156 431.789062 L 413.777344 427.390625 C 412.992188 426.636719 412.148438 425.945312 411.367188 425.25 L 408.929688 423.109375 C 408.117188 422.414062 407.304688 421.691406 406.492188 420.996094 L 401.5 416.886719 C 400.65625 416.222656 399.84375 415.496094 399 414.859375 L 393.894531 410.894531 C 392.210938 409.566406 390.46875 408.320312 388.757812 407.046875 C 387.015625 405.773438 385.300781 404.5 383.5625 403.257812 L 378.277344 399.582031 L 375.636719 397.757812 L 374.96875 397.296875 L 374.300781 396.859375 L 372.964844 395.964844 L 367.625 392.433594 C 366.726562 391.855469 365.855469 391.246094 364.957031 390.667969 L 362.257812 388.960938 C 358.628906 386.703125 355.058594 384.390625 351.371094 382.246094 C 336.742188 373.480469 321.796875 365.375 306.617188 357.738281 C 321.097656 366.589844 335.320312 375.851562 349.078125 385.691406 C 352.5625 388.121094 355.898438 390.667969 359.296875 393.1875 L 361.820312 395.066406 C 362.664062 395.703125 363.476562 396.371094 364.316406 397.003906 L 369.308594 400.914062 L 370.558594 401.894531 L 371.777344 402.878906 L 374.214844 404.878906 L 379.089844 408.898438 C 380.6875 410.257812 382.253906 411.648438 383.851562 413.039062 C 385.449219 414.425781 387.042969 415.785156 388.554688 417.203125 L 393.195312 421.457031 C 393.980469 422.152344 394.707031 422.90625 395.460938 423.628906 L 397.726562 425.800781 L 399.988281 427.96875 C 400.714844 428.722656 401.441406 429.472656 402.164062 430.199219 L 404.34375 432.425781 C 405.066406 433.179688 405.824219 433.902344 406.492188 434.683594 L 410.699219 439.285156 C 412.0625 440.847656 413.398438 442.410156 414.761719 443.972656 C 415.109375 444.378906 415.429688 444.753906 415.777344 445.160156 L 416.734375 446.375 L 418.679688 448.777344 L 419.636719 449.992188 C 419.957031 450.398438 420.25 450.800781 420.566406 451.207031 L 422.425781 453.667969 C 424.890625 456.9375 427.15625 460.324219 429.332031 463.738281 C 429.625 464.171875 429.855469 464.605469 430.117188 465.039062 L 430.898438 466.34375 L 431.683594 467.644531 L 432.0625 468.28125 L 432.410156 468.945312 L 433.832031 471.578125 C 434.09375 472.015625 434.296875 472.449219 434.5 472.910156 L 435.167969 474.242188 C 435.484375 474.878906 435.777344 475.515625 436.09375 476.179688 C 434.46875 476.09375 432.816406 476.007812 431.191406 475.890625 C 421.410156 475.3125 411.628906 474.707031 401.875 473.925781 C 391.425781 473.113281 380.773438 472.449219 370.644531 469.699219 C 363.792969 467.847656 357.148438 465.269531 350.734375 462.261719 C 331.636719 453.320312 313.960938 440.355469 302.378906 422.761719 C 292.335938 407.480469 287.285156 389.335938 285.28125 371.164062 C 283.28125 352.992188 284.210938 334.613281 285.28125 316.355469 C 292.453125 322.140625 300.085938 327.148438 308.125 331.546875 C 322.203125 339.273438 337.351562 345.148438 352.824219 350.269531 C 358.832031 352.265625 364.898438 354.148438 370.964844 355.972656 C 373.835938 356.839844 376.738281 357.679688 379.613281 358.546875 C 386.925781 360.6875 394.445312 362.972656 401.527344 365.953125 C 411.714844 370.207031 421.003906 375.882812 427.535156 384.621094 C 436.707031 396.890625 438.214844 411.589844 437.75 426.378906 C 437.75 426.4375 437.808594 427.96875 438.011719 430.488281 C 438.332031 434.453125 438.941406 440.875 440.128906 447.734375 C 440.769531 451.4375 441.550781 455.257812 442.539062 458.875 C 442.566406 458.992188 442.625 459.109375 442.65625 459.253906 Z M 442.65625 459.253906 " fill-opacity="1" fill-rule="nonzero"/></g><g clip-path="url(#caab0311e2)"><path fill="#21b861" d="M 520.5 381.699219 C 515.273438 411.820312 492.171875 442.785156 465.003906 459.308594 C 465.441406 458.179688 465.847656 457.054688 466.195312 455.894531 C 468.195312 449.847656 469.503906 443.710938 470.519531 437.636719 C 472.550781 425.480469 473.390625 413.5 475.886719 401.953125 C 476.527344 399.058594 477.253906 396.222656 478.09375 393.417969 C 478.964844 390.609375 479.953125 387.832031 481.082031 385.113281 C 483.347656 379.644531 486.105469 374.347656 489.210938 369.253906 C 495.453125 359.066406 502.941406 349.519531 511.355469 340.894531 C 502.273438 348.882812 494.027344 357.851562 486.859375 367.71875 C 483.289062 372.667969 480.039062 377.878906 477.253906 383.375 C 475.859375 386.125 474.582031 388.933594 473.449219 391.824219 C 472.320312 394.71875 471.332031 397.640625 470.433594 400.59375 C 466.890625 412.429688 465.089844 424.527344 462.246094 435.957031 C 460.824219 441.6875 459.140625 447.273438 456.933594 452.507812 C 455.863281 455.085938 454.671875 457.542969 453.335938 459.917969 C 451.828125 447.417969 448.167969 435.234375 445.558594 422.875 C 442.625 408.898438 441.058594 394.113281 445.5 380.511719 C 451.652344 361.585938 468.195312 348.15625 484.394531 336.496094 C 500.617188 324.863281 517.917969 313.144531 527.03125 295.433594 C 518.613281 323.125 525.433594 353.191406 520.5 381.699219 Z M 520.5 381.699219 " fill-opacity="1" fill-rule="nonzero"/></g><path fill="#ffed00" d="M 602.628906 517.394531 C 603.140625 517.769531 603.636719 518.167969 604.113281 518.589844 C 604.589844 519.011719 605.042969 519.457031 605.476562 519.921875 C 605.910156 520.390625 606.320312 520.875 606.707031 521.382812 C 607.09375 521.886719 607.457031 522.410156 607.792969 522.949219 C 608.128906 523.492188 608.4375 524.046875 608.722656 524.617188 C 609.007812 525.1875 609.261719 525.769531 609.488281 526.363281 C 609.71875 526.960938 609.917969 527.5625 610.085938 528.175781 C 610.257812 528.792969 610.398438 529.414062 610.507812 530.039062 C 610.617188 530.667969 610.699219 531.300781 610.75 531.933594 C 610.800781 532.570312 610.820312 533.207031 610.808594 533.84375 C 610.796875 534.480469 610.757812 535.117188 610.683594 535.75 C 610.613281 536.382812 610.511719 537.011719 610.382812 537.636719 C 610.25 538.257812 610.089844 538.875 609.898438 539.484375 C 609.707031 540.089844 609.488281 540.6875 609.242188 541.277344 C 608.992188 541.863281 608.71875 542.4375 608.414062 543 C 608.113281 543.558594 607.785156 544.105469 607.429688 544.636719 C 605.410156 547.195312 603.34375 549.71875 601.226562 552.199219 C 599.109375 554.679688 596.949219 557.121094 594.742188 559.519531 C 592.53125 561.921875 590.277344 564.277344 587.980469 566.589844 C 585.683594 568.902344 583.34375 571.171875 580.957031 573.398438 C 578.574219 575.621094 576.148438 577.800781 573.683594 579.933594 C 571.214844 582.066406 568.710938 584.148438 566.164062 586.1875 C 563.617188 588.222656 561.035156 590.210938 558.414062 592.148438 C 555.792969 594.085938 553.132812 595.972656 550.441406 597.808594 C 547.75 599.648438 545.019531 601.433594 542.261719 603.164062 C 539.5 604.898438 536.707031 606.578125 533.882812 608.203125 C 531.058594 609.832031 528.203125 611.402344 525.320312 612.921875 C 522.4375 614.441406 519.523438 615.902344 516.585938 617.308594 C 513.644531 618.714844 510.679688 620.066406 507.6875 621.359375 C 504.699219 622.652344 501.683594 623.890625 498.644531 625.070312 C 495.609375 626.25 492.550781 627.367188 489.46875 628.429688 C 486.390625 629.492188 483.289062 630.496094 480.171875 631.441406 C 477.054688 632.386719 473.917969 633.269531 470.769531 634.09375 C 467.617188 634.917969 464.449219 635.683594 461.269531 636.386719 C 458.089844 637.09375 454.894531 637.734375 451.691406 638.316406 C 448.484375 638.898438 445.269531 639.421875 442.046875 639.882812 C 438.820312 640.339844 435.589844 640.738281 432.351562 641.074219 C 429.109375 641.414062 425.867188 641.6875 422.617188 641.898438 C 419.367188 642.113281 416.113281 642.261719 412.859375 642.351562 C 409.601562 642.441406 406.347656 642.46875 403.089844 642.433594 C 399.835938 642.398438 396.578125 642.300781 393.328125 642.140625 C 390.074219 641.980469 386.828125 641.761719 383.582031 641.476562 C 380.339844 641.191406 377.101562 640.847656 373.871094 640.441406 C 370.640625 640.035156 367.417969 639.566406 364.207031 639.035156 C 360.992188 638.507812 357.789062 637.917969 354.601562 637.265625 C 351.410156 636.613281 348.234375 635.902344 345.070312 635.128906 C 341.90625 634.355469 338.761719 633.523438 335.628906 632.628906 C 332.5 631.738281 329.386719 630.785156 326.289062 629.773438 C 323.195312 628.761719 320.121094 627.691406 317.066406 626.5625 C 314.011719 625.433594 310.980469 624.246094 307.972656 623 C 304.964844 621.757812 301.980469 620.457031 299.019531 619.097656 C 296.0625 617.738281 293.128906 616.324219 290.222656 614.855469 C 287.320312 613.382812 284.441406 611.859375 281.59375 610.277344 C 278.75 608.699219 275.933594 607.066406 273.148438 605.378906 C 270.363281 603.691406 267.609375 601.949219 264.890625 600.15625 C 262.171875 598.367188 259.488281 596.523438 256.839844 594.628906 C 254.191406 592.730469 251.582031 590.789062 249.007812 588.792969 C 246.433594 586.796875 243.894531 584.753906 241.398438 582.664062 C 238.902344 580.574219 236.445312 578.433594 234.03125 576.25 C 231.617188 574.066406 229.242188 571.835938 226.914062 569.558594 C 224.582031 567.28125 222.296875 564.964844 220.054688 562.601562 C 217.8125 560.238281 215.617188 557.832031 213.464844 555.386719 C 211.3125 552.941406 209.210938 550.453125 207.15625 547.925781 C 205.097656 545.398438 203.089844 542.832031 201.132812 540.230469 C 199.175781 537.625 197.265625 534.984375 195.410156 532.308594 C 193.550781 529.632812 191.746094 526.921875 189.988281 524.175781 C 188.234375 521.429688 186.53125 518.652344 184.882812 515.84375 C 183.234375 513.03125 181.640625 510.191406 180.097656 507.320312 C 178.558594 504.449219 177.070312 501.546875 175.640625 498.621094 C 174.210938 495.691406 172.835938 492.738281 171.515625 489.757812 C 170.199219 486.773438 168.9375 483.769531 167.734375 480.742188 C 166.53125 477.710938 165.382812 474.660156 164.296875 471.589844 C 163.207031 468.515625 162.179688 465.421875 161.207031 462.3125 C 160.238281 459.199219 159.328125 456.070312 158.476562 452.921875 C 157.625 449.773438 156.832031 446.613281 156.101562 443.433594 C 155.371094 440.257812 154.699219 437.066406 154.089844 433.863281 C 153.480469 430.660156 152.929688 427.449219 152.445312 424.222656 C 151.957031 421 151.53125 417.765625 151.164062 414.527344 C 150.800781 411.285156 150.496094 408.039062 150.253906 404.785156 C 150.015625 401.535156 149.835938 398.277344 149.71875 395.019531 C 149.742188 394.382812 149.800781 393.75 149.886719 393.117188 C 149.976562 392.484375 150.09375 391.859375 150.238281 391.238281 C 150.386719 390.621094 150.5625 390.007812 150.769531 389.40625 C 150.976562 388.800781 151.207031 388.207031 151.472656 387.628906 C 151.734375 387.046875 152.023438 386.480469 152.339844 385.925781 C 152.65625 385.371094 152.996094 384.835938 153.367188 384.316406 C 153.734375 383.796875 154.125 383.292969 154.539062 382.808594 C 154.957031 382.328125 155.394531 381.867188 155.855469 381.425781 C 156.3125 380.984375 156.792969 380.566406 157.292969 380.171875 C 157.792969 379.773438 158.3125 379.40625 158.847656 379.058594 C 159.382812 378.714844 159.933594 378.394531 160.496094 378.101562 C 161.0625 377.808594 161.640625 377.542969 162.234375 377.308594 C 162.824219 377.070312 163.425781 376.863281 164.035156 376.683594 C 164.644531 376.503906 165.265625 376.351562 165.890625 376.234375 C 166.515625 376.113281 167.144531 376.023438 167.777344 375.960938 C 168.410156 375.902344 169.046875 375.875 169.683594 375.875 L 209.503906 377.488281 C 210.179688 377.480469 210.855469 377.503906 211.527344 377.558594 C 212.203125 377.617188 212.871094 377.710938 213.535156 377.835938 C 214.199219 377.960938 214.851562 378.121094 215.5 378.316406 C 216.148438 378.507812 216.785156 378.734375 217.410156 378.992188 C 218.035156 379.25 218.644531 379.539062 219.238281 379.859375 C 219.835938 380.179688 220.410156 380.527344 220.972656 380.90625 C 221.53125 381.285156 222.070312 381.691406 222.589844 382.125 C 223.105469 382.558594 223.601562 383.019531 224.074219 383.503906 C 224.542969 383.988281 224.992188 384.496094 225.410156 385.023438 C 225.832031 385.554688 226.222656 386.105469 226.585938 386.675781 C 226.949219 387.246094 227.285156 387.832031 227.589844 388.433594 C 227.894531 389.039062 228.167969 389.65625 228.410156 390.289062 C 228.652344 390.921875 228.859375 391.5625 229.035156 392.214844 C 229.210938 392.871094 229.355469 393.53125 229.464844 394.199219 C 229.574219 394.867188 229.648438 395.539062 229.6875 396.214844 C 229.730469 396.890625 229.738281 397.566406 229.710938 398.242188 C 230.019531 402.597656 230.488281 406.9375 231.121094 411.261719 C 231.75 415.582031 232.539062 419.875 233.488281 424.140625 C 234.433594 428.402344 235.539062 432.625 236.796875 436.808594 C 238.058594 440.988281 239.46875 445.117188 241.035156 449.195312 C 242.601562 453.269531 244.3125 457.28125 246.175781 461.230469 C 248.035156 465.179688 250.039062 469.054688 252.1875 472.855469 C 254.335938 476.65625 256.621094 480.371094 259.042969 484.003906 C 261.464844 487.632812 264.019531 491.167969 266.703125 494.609375 C 269.386719 498.050781 272.195312 501.390625 275.125 504.621094 C 278.058594 507.855469 281.101562 510.972656 284.265625 513.980469 C 287.425781 516.988281 290.695312 519.875 294.070312 522.640625 C 297.445312 525.402344 300.914062 528.039062 304.484375 530.546875 C 308.054688 533.054688 311.714844 535.425781 315.457031 537.660156 C 319.203125 539.894531 323.027344 541.992188 326.925781 543.941406 C 330.828125 545.894531 334.796875 547.699219 338.828125 549.359375 C 342.863281 551.015625 346.953125 552.523438 351.097656 553.878906 C 355.246094 555.234375 359.433594 556.433594 363.667969 557.480469 C 367.902344 558.523438 372.171875 559.410156 376.472656 560.136719 C 380.773438 560.867188 385.09375 561.433594 389.4375 561.84375 C 393.78125 562.25 398.132812 562.496094 402.492188 562.582031 C 406.855469 562.667969 411.214844 562.59375 415.570312 562.355469 C 419.925781 562.117188 424.269531 561.71875 428.59375 561.160156 C 432.921875 560.601562 437.222656 559.882812 441.496094 559.003906 C 445.773438 558.128906 450.007812 557.09375 454.207031 555.902344 C 458.40625 554.710938 462.554688 553.363281 466.652344 551.867188 C 470.753906 550.367188 474.789062 548.71875 478.769531 546.921875 C 482.746094 545.121094 486.652344 543.179688 490.488281 541.09375 C 494.320312 539.003906 498.074219 536.777344 501.746094 534.414062 C 505.414062 532.050781 508.992188 529.550781 512.480469 526.921875 C 515.964844 524.292969 519.351562 521.535156 522.632812 518.65625 C 525.917969 515.773438 529.089844 512.777344 532.152344 509.660156 C 535.210938 506.546875 538.15625 503.320312 540.980469 499.988281 C 541.355469 499.425781 541.761719 498.886719 542.191406 498.363281 C 542.625 497.84375 543.082031 497.34375 543.566406 496.871094 C 544.046875 496.394531 544.554688 495.949219 545.082031 495.523438 C 545.609375 495.101562 546.15625 494.707031 546.726562 494.339844 C 547.292969 493.972656 547.878906 493.636719 548.480469 493.328125 C 549.085938 493.019531 549.699219 492.742188 550.332031 492.5 C 550.960938 492.253906 551.601562 492.042969 552.253906 491.863281 C 552.90625 491.683594 553.566406 491.535156 554.230469 491.425781 C 554.898438 491.3125 555.570312 491.234375 556.242188 491.191406 C 556.917969 491.144531 557.59375 491.136719 558.269531 491.160156 C 558.945312 491.1875 559.617188 491.246094 560.285156 491.339844 C 560.953125 491.433594 561.617188 491.558594 562.273438 491.71875 C 562.929688 491.878906 563.578125 492.074219 564.214844 492.300781 C 564.851562 492.527344 565.472656 492.785156 566.082031 493.078125 C 566.695312 493.367188 567.289062 493.6875 567.867188 494.039062 C 568.441406 494.390625 569 494.769531 569.539062 495.175781 Z M 602.628906 517.394531 " fill-opacity="1" fill-rule="nonzero"/><g fill="#020905" fill-opacity="1"><g transform="translate(176.691773, 397.828617)"><g><path d="M 2.734375 25.613281 C 3.320312 30.257812 5.789062 31.101562 8.46875 31.265625 C 11.152344 31.429688 15.425781 31.492188 21.542969 32.226562 C 27.605469 32.914062 30.351562 33.171875 34.390625 33.765625 C 35.3125 33.898438 36.117188 33.898438 36.757812 33.816406 C 38.984375 33.535156 39.699219 32.039062 39.292969 28.828125 C 38.765625 24.675781 37.667969 23.910156 33.234375 23.417969 C 31.648438 23.164062 28.941406 22.804688 25.777344 22.402344 C 25.074219 18.824219 24.425781 15.292969 23.921875 11.691406 C 26.882812 12.070312 29.019531 12.300781 31.726562 12.660156 C 32.648438 12.796875 33.449219 12.796875 34.09375 12.714844 C 36.316406 12.433594 37.03125 10.9375 36.625 7.726562 C 36.101562 3.574219 35 2.808594 30.570312 2.3125 C 28.066406 1.976562 22.84375 1.179688 17.3125 0.726562 C 11.726562 0.226562 7.777344 -0.0273438 4.238281 -0.234375 C 3.535156 -0.246094 2.878906 -0.261719 2.335938 -0.195312 C 0.308594 0.0625 -0.351562 1.199219 0.0664062 4.511719 C 0.65625 9.15625 3.128906 10.046875 5.804688 10.164062 C 7.824219 10.257812 10.691406 10.296875 14.554688 10.664062 C 15.105469 14.257812 15.765625 17.890625 16.574219 21.503906 C 12.71875 21.1875 9.683594 21.019531 6.90625 20.867188 C 6.199219 20.859375 5.546875 20.839844 5 20.910156 C 2.976562 21.164062 2.316406 22.300781 2.734375 25.613281 Z M 2.734375 25.613281 "/></g></g></g><g fill="#020905" fill-opacity="1"><g transform="translate(184.947527, 448.590623)"><g><path d="M 5.253906 15.582031 C 6.609375 19.378906 7.542969 21.691406 8.621094 24.269531 C 9.75 26.828125 11.226562 28.152344 15.105469 27.609375 C 15.609375 27.535156 16.046875 27.433594 16.472656 27.28125 C 18.253906 26.644531 18.792969 25.339844 18.039062 23.230469 C 17.449219 21.589844 15.9375 17.949219 14.394531 13.632812 C 13.960938 12.414062 13.585938 11.226562 13.25 10.128906 C 14.410156 9.820312 15.773438 9.492188 17.386719 9.125 L 19.949219 16.144531 C 20.972656 19.007812 22.894531 19.800781 25.613281 19.410156 C 26.210938 19.304688 26.804688 19.195312 27.273438 19.027344 C 29.152344 18.359375 29.785156 17.019531 28.894531 14.535156 L 26.429688 7.640625 C 27.78125 7.421875 28.898438 7.285156 29.949219 7.121094 L 30.167969 7.730469 C 31.910156 12.609375 32.921875 16.324219 34.042969 20.207031 C 35.25 24.167969 37.125 24.238281 40.238281 23.917969 C 41.101562 23.820312 41.839844 23.660156 42.449219 23.445312 C 43.902344 22.925781 44.371094 22.015625 43.824219 20.042969 C 43.121094 17.332031 42.0625 13.480469 40.027344 7.644531 C 38.351562 2.953125 36.90625 -0.496094 35.578125 -3.621094 C 34.1875 -6.773438 32.734375 -6.992188 29.550781 -6.277344 C 29.015625 -6.140625 28.53125 -6.019531 28.109375 -5.867188 C 26.46875 -5.28125 25.761719 -4.449219 26.015625 -2.847656 C 23.203125 -2.421875 20.128906 -1.851562 17.710938 -1.515625 C 12.226562 -0.71875 7.078125 0.855469 4.9375 1.675781 C 3.140625 2.421875 1.839844 4.261719 2.550781 7.289062 C 2.96875 9.042969 4.058594 12.09375 5.253906 15.582031 Z M 5.253906 15.582031 "/></g></g></g><g fill="#020905" fill-opacity="1"><g transform="translate(202.676221, 493.304333)"><g><path d="M 7.492188 12.703125 C 9.597656 16.144531 10.984375 18.214844 12.542969 20.472656 C 14.195312 22.789062 15.941406 23.824219 19.601562 22.457031 C 20.078125 22.285156 20.488281 22.089844 20.828125 21.882812 C 22.441406 20.894531 22.71875 19.441406 21.546875 17.527344 C 20.664062 16.082031 18.4375 12.832031 16.042969 8.925781 C 15.367188 7.820312 14.785156 6.773438 14.226562 5.773438 C 16.234375 4.660156 19.328125 3.230469 23.101562 1.851562 C 30.40625 -0.8125 31.492188 -0.949219 34.941406 -1.894531 C 35.574219 -2.105469 36.09375 -2.308594 36.472656 -2.542969 C 38.257812 -3.636719 37.910156 -5.351562 36.753906 -7.621094 C 36.558594 -8.027344 36.351562 -8.367188 36.144531 -8.707031 C 34.894531 -10.746094 33.449219 -11.671875 30.738281 -11.238281 C 27.453125 -10.6875 19.628906 -7.820312 16.179688 -6.582031 C 10.976562 -4.679688 6.261719 -2.082031 4.332031 -0.84375 C 2.703125 0.214844 1.808594 2.28125 3.121094 5.097656 C 3.890625 6.730469 5.609375 9.535156 7.492188 12.703125 Z M 7.492188 12.703125 "/></g></g></g><g fill="#020905" fill-opacity="1"><g transform="translate(228.180287, 532.022844)"><g><path d="M 9.890625 10.9375 C 12.648438 13.882812 14.421875 15.632812 16.40625 17.53125 C 18.492188 19.46875 20.40625 20.132812 23.71875 18.058594 C 24.148438 17.789062 24.511719 17.519531 24.800781 17.25 C 26.183594 15.953125 26.164062 14.472656 24.632812 12.835938 C 23.472656 11.601562 20.640625 8.863281 17.507812 5.515625 C 16.625 4.570312 15.84375 3.664062 15.097656 2.792969 C 16.839844 1.300781 19.585938 -0.722656 23.003906 -2.832031 C 29.625 -6.910156 30.65625 -7.261719 33.847656 -8.882812 C 34.421875 -9.21875 34.890625 -9.519531 35.21875 -9.824219 C 36.746094 -11.253906 36.058594 -12.863281 34.46875 -14.855469 C 34.199219 -15.214844 33.925781 -15.507812 33.65625 -15.796875 C 32.019531 -17.542969 30.421875 -18.160156 27.851562 -17.191406 C 24.742188 -15.988281 17.65625 -11.609375 14.527344 -9.703125 C 9.8125 -6.792969 5.714844 -3.300781 4.074219 -1.695312 C 2.691406 -0.332031 2.230469 1.871094 4.085938 4.363281 C 5.164062 5.8125 7.410156 8.210938 9.890625 10.9375 Z M 9.890625 10.9375 "/></g></g></g><g fill="#020905" fill-opacity="1"><g transform="translate(260.946859, 565.223436)"><g><path d="M 13.96875 10.105469 C 24.144531 17.027344 35.136719 14.6875 41.355469 8.554688 C 42.320312 7.582031 43.171875 6.597656 43.84375 5.609375 C 46.953125 1.035156 46.832031 -3.746094 43.0625 -8.121094 C 43.742188 -8.679688 44.21875 -9.199219 44.527344 -9.652344 C 45.308594 -10.804688 44.902344 -11.625 43.808594 -12.671875 C 43.109375 -13.328125 42.425781 -13.914062 41.394531 -14.613281 C 31.511719 -21.339844 20.125 -21.433594 11.480469 -12.976562 C 10.390625 -11.910156 9.425781 -10.757812 8.644531 -9.605469 C 4.410156 -3.386719 4.828125 3.886719 13.96875 10.105469 Z M 20.253906 -7.1875 C 24.0625 -10.921875 29.09375 -11.234375 33.417969 -8.292969 L 33.625 -8.152344 C 32.902344 -7.621094 32.382812 -7.128906 32.078125 -6.675781 C 31.460938 -5.769531 31.644531 -4.980469 32.316406 -4.101562 C 34.15625 -1.585938 34.667969 -0.03125 33.488281 1.695312 C 33.238281 2.066406 32.917969 2.453125 32.527344 2.847656 C 29.261719 6.050781 24.46875 6.101562 20.679688 3.523438 C 17.136719 1.113281 16.335938 -1.960938 18.550781 -5.214844 C 19 -5.871094 19.558594 -6.515625 20.253906 -7.1875 Z M 20.253906 -7.1875 "/></g></g></g><g fill="#020905" fill-opacity="1"><g transform="translate(307.092746, 593.646427)"><g/></g></g><g fill="#020905" fill-opacity="1"><g transform="translate(335.566878, 606.209285)"><g><path d="M 10.726562 2.742188 C 12.773438 3.171875 14.808594 2.933594 17.117188 1.378906 C 20.308594 -0.753906 23.75 -4.566406 26.71875 -8.324219 C 26.390625 -4.066406 26.414062 0.46875 27.425781 3.425781 C 28.128906 5.660156 29.597656 6.675781 31.546875 7.082031 C 33.597656 7.511719 35.835938 7.265625 38.496094 5.480469 C 44.902344 1.113281 52.550781 -9.453125 57.320312 -20.621094 C 57.441406 -20.953125 57.550781 -21.234375 57.609375 -21.527344 C 58.046875 -23.625 56.226562 -24.410156 53.203125 -25.042969 C 49.789062 -25.753906 48.152344 -25.226562 46.980469 -22.523438 C 44.398438 -16.496094 40.695312 -11.160156 37.515625 -7.394531 C 37.488281 -11.167969 37.628906 -16.480469 38.089844 -22.59375 C 38.496094 -26.988281 37.480469 -28.214844 34.652344 -28.804688 C 32.214844 -29.3125 30.164062 -28.519531 27.359375 -24.828125 C 25.671875 -22.585938 21.4375 -17.160156 17.519531 -12.277344 C 17.679688 -14.023438 17.96875 -16.152344 18.476562 -18.589844 C 19.066406 -21.417969 19.953125 -24.695312 21.164062 -28.308594 C 21.957031 -30.636719 20.976562 -31.808594 18.246094 -32.375 C 17.660156 -32.5 16.921875 -32.601562 16.121094 -32.667969 C 13.015625 -32.90625 11.378906 -32.382812 10.425781 -29.273438 C 9.390625 -25.773438 7.894531 -20.796875 6.847656 -15.773438 C 5.710938 -10.308594 5.070312 -4.796875 6.195312 -1.152344 C 6.820312 1.21875 8.433594 2.265625 10.726562 2.742188 Z M 10.726562 2.742188 "/></g></g></g><g fill="#020905" fill-opacity="1"><g transform="translate(398.843453, 616.599557)"><g><path d="M 3.058594 0.296875 C 3.65625 0.320312 4.152344 0.292969 4.652344 0.269531 C 7.539062 0.128906 8.738281 -0.828125 9.515625 -4.257812 C 9.929688 -5.976562 10.398438 -7.644531 10.917969 -9.214844 L 24.070312 -9.515625 C 23.988281 -8.164062 23.808594 -6.757812 23.527344 -5.347656 C 23.363281 -4.589844 23.347656 -3.941406 23.371094 -3.445312 C 23.46875 -1.453125 24.742188 -0.96875 27.535156 -0.90625 C 28.035156 -0.882812 28.535156 -0.90625 28.980469 -0.929688 C 31.769531 -1.066406 33.019531 -1.972656 33.800781 -5.355469 C 34.503906 -8.332031 34.742188 -11.535156 34.589844 -14.671875 C 34.144531 -23.726562 30.472656 -32.472656 25.285156 -35.460938 C 23.953125 -36.191406 22.589844 -36.574219 21.144531 -36.503906 C 19.652344 -36.429688 18.136719 -35.855469 16.539062 -34.828125 C 9.292969 -30.082031 1.894531 -16.203125 -0.933594 -3.746094 C -1.050781 -3.140625 -1.128906 -2.636719 -1.105469 -2.191406 C -1.015625 -0.398438 0.359375 0.230469 3.058594 0.296875 Z M 14.898438 -18.539062 C 16.496094 -21.558594 18.164062 -24.136719 19.664062 -26.054688 C 21.003906 -24.226562 22.269531 -21.746094 23.117188 -18.742188 Z M 14.898438 -18.539062 "/></g></g></g><g fill="#020905" fill-opacity="1"><g transform="translate(450.682004, 612.159102)"><g><path d="M 13.679688 -3.230469 C 26.269531 -6.675781 28.324219 -12.558594 27.933594 -18.132812 C 27.894531 -18.847656 27.773438 -19.484375 27.601562 -20.109375 C 26.5625 -23.90625 23.074219 -25.894531 14.617188 -26.210938 C 10.445312 -26.359375 7.617188 -26.878906 7.546875 -27.890625 C 7.503906 -28.808594 8.515625 -29.449219 10.820312 -30.078125 C 13.222656 -30.738281 16.933594 -31.339844 19.65625 -31.207031 C 20.695312 -31.179688 21.5625 -31.214844 22.285156 -31.410156 C 23.726562 -31.804688 24.476562 -32.835938 25.132812 -35.339844 C 25.570312 -36.957031 25.675781 -38.074219 25.480469 -38.792969 C 25.203125 -39.800781 24.421875 -40.207031 23.316406 -40.472656 C 20.542969 -41.160156 17.371094 -41.429688 11.222656 -39.742188 C 1.277344 -37.019531 -3.011719 -32.128906 -2.550781 -25.539062 C -2.480469 -24.523438 -2.339844 -23.632812 -2.117188 -22.816406 C -0.996094 -18.734375 2.316406 -17.007812 11.164062 -16.382812 C 14.335938 -16.113281 17.542969 -15.910156 17.613281 -14.894531 C 17.667969 -14.132812 16.964844 -13.683594 15.28125 -13.222656 C 10.382812 -11.882812 6.804688 -11.933594 2.960938 -12.949219 C 2.449219 -13.117188 1.945312 -13.082031 1.464844 -12.953125 C 0.214844 -12.609375 -0.929688 -11.316406 -2.246094 -8.578125 C -2.847656 -7.378906 -3.015625 -6.300781 -2.78125 -5.4375 C -2.53125 -4.523438 -1.800781 -3.742188 -0.519531 -3.214844 C 3.117188 -1.628906 7.433594 -1.519531 13.679688 -3.230469 Z M 13.679688 -3.230469 "/></g></g></g><g fill="#020905" fill-opacity="1"><g transform="translate(496.363677, 598.083993)"><g><path d="M -6.039062 -25.722656 C -5.332031 -26.09375 -1.910156 -28.042969 1.449219 -29.792969 C 1.972656 -26.300781 2.855469 -21.480469 4.246094 -16.757812 C 5.191406 -13.433594 6.53125 -9.242188 7.1875 -7.449219 C 7.300781 -7.117188 7.441406 -6.851562 7.578125 -6.585938 C 8.589844 -4.640625 9.996094 -4.644531 12.070312 -5.722656 C 12.378906 -5.886719 12.734375 -6.070312 13.109375 -6.320312 C 16.988281 -8.789062 17.15625 -10.84375 16.25 -13.011719 C 15.367188 -15.246094 14.589844 -17.929688 13.453125 -21.832031 C 12.039062 -26.601562 11.164062 -31.085938 10.644531 -34.242188 C 12.898438 -35.304688 15.199219 -36.390625 17.210938 -37.269531 C 20.925781 -38.980469 20.738281 -40.847656 20 -43.886719 C 19.785156 -44.730469 19.527344 -45.441406 19.230469 -46.015625 C 18.515625 -47.382812 17.550781 -47.726562 15.671875 -46.914062 C 13.082031 -45.847656 8.398438 -43.519531 3.90625 -41.460938 C 1.785156 -40.46875 -0.535156 -39.316406 -2.699219 -38.191406 C -5.175781 -36.902344 -7.40625 -35.683594 -8.925781 -34.722656 C -11.882812 -32.957031 -11.765625 -31.109375 -10.621094 -28.054688 C -10.414062 -27.546875 -10.226562 -27.082031 -10.019531 -26.683594 C -9.144531 -25.003906 -8.113281 -24.644531 -6.039062 -25.722656 Z M -6.039062 -25.722656 "/></g></g></g><g fill="#020905" fill-opacity="1"><g transform="translate(539.626602, 573.636408)"><g><path d="M 12.828125 -10.28125 C 15.929688 -12.863281 17.78125 -14.53125 19.832031 -16.429688 C 21.847656 -18.367188 22.585938 -20.210938 20.742188 -23.667969 C 20.503906 -24.117188 20.253906 -24.492188 19.96875 -24.835938 C 18.757812 -26.292969 17.347656 -26.351562 15.625 -24.917969 C 14.28125 -23.804688 11.386719 -21.132812 7.863281 -18.203125 C 6.867188 -17.375 5.875 -16.617188 4.964844 -15.921875 C 4.277344 -16.90625 3.5 -18.074219 2.601562 -19.464844 L 8.3125 -24.28125 C 10.648438 -26.222656 10.734375 -28.304688 9.433594 -30.722656 C 9.128906 -31.246094 8.824219 -31.769531 8.503906 -32.152344 C 7.230469 -33.683594 5.757812 -33.816406 3.726562 -32.128906 L -1.902344 -27.445312 C -2.570312 -28.640625 -3.078125 -29.640625 -3.59375 -30.574219 L -3.097656 -30.988281 C 0.886719 -34.300781 4.027344 -36.523438 7.285156 -38.914062 C 10.59375 -41.402344 10.015625 -43.191406 8.644531 -46.003906 C 8.257812 -46.78125 7.855469 -47.421875 7.441406 -47.917969 C 6.453125 -49.105469 5.441406 -49.234375 3.773438 -48.042969 C 1.46875 -46.449219 -1.785156 -44.132812 -6.566406 -40.21875 C -10.394531 -37.035156 -13.140625 -34.492188 -15.617188 -32.171875 C -18.101562 -29.78125 -17.808594 -28.339844 -16.042969 -25.597656 C -15.730469 -25.144531 -15.449219 -24.730469 -15.164062 -24.382812 C -14.050781 -23.042969 -13.023438 -22.667969 -11.605469 -23.457031 C -10.242188 -20.960938 -8.652344 -18.269531 -7.503906 -16.113281 C -4.875 -11.238281 -1.625 -6.941406 -0.121094 -5.210938 C 1.195312 -3.78125 3.371094 -3.191406 5.96875 -4.898438 C 7.472656 -5.894531 9.964844 -7.964844 12.828125 -10.28125 Z M 12.828125 -10.28125 "/></g></g></g><g fill="#020905" fill-opacity="1"><g transform="translate(574.891359, 541.712088)"><g><path d="M -4.019531 -13.824219 C -2.074219 -16.09375 -1.988281 -18.253906 -3.859375 -20.972656 C -5.886719 -23.960938 -10.367188 -29.449219 -13.097656 -32.386719 C -15.441406 -34.855469 -17.261719 -34.1875 -18.886719 -32.300781 C -19.179688 -31.957031 -19.464844 -31.546875 -19.75 -31.136719 C -21.621094 -28.347656 -21.574219 -26.335938 -19.140625 -23.589844 C -16.710938 -20.914062 -12.699219 -16.023438 -10.828125 -13.234375 C -10.46875 -12.664062 -10.082031 -12.269531 -9.707031 -11.941406 C -8.042969 -10.515625 -6.292969 -11.179688 -4.019531 -13.824219 Z M -2.171875 -2.058594 C -1.9375 -1.796875 -1.707031 -1.53125 -1.480469 -1.335938 C -0.117188 -0.167969 1.253906 -0.695312 3.589844 -3.417969 C 6.347656 -6.628906 5.71875 -8.417969 4.734375 -9.722656 C 3.980469 -10.832031 3.191406 -11.902344 2.46875 -13.046875 C 2.148438 -13.515625 1.804688 -13.878906 1.464844 -14.171875 C 0.179688 -15.273438 -1.128906 -14.820312 -3.273438 -12.855469 C -3.636719 -12.511719 -4 -12.164062 -4.292969 -11.824219 C -6.140625 -9.671875 -6.1875 -7.9375 -4.824219 -5.851562 C -3.914062 -4.542969 -3.5 -3.726562 -2.171875 -2.058594 Z M -2.171875 -2.058594 "/></g></g></g></svg>