<svg xmlns="http://www.w3.org/2000/svg" xmlns:xlink="http://www.w3.org/1999/xlink" width="1080" zoomAndPan="magnify" viewBox="0 0 810 809.999993" height="1080" preserveAspectRatio="xMidYMid meet" version="1.0"><defs><g/><clipPath id="id1"><path d="M 207.667969 81.027344 L 602.167969 81.027344 L 602.167969 581.972656 L 207.667969 581.972656 Z M 207.667969 81.027344 " clip-rule="nonzero"/></clipPath><clipPath id="id2"><path d="M 365 254.210938 L 483 254.210938 L 483 401 L 365 401 Z M 365 254.210938 " clip-rule="nonzero"/></clipPath><clipPath id="id3"><path d="M 260.382812 369 L 544.632812 369 L 544.632812 530.210938 L 260.382812 530.210938 Z M 260.382812 369 " clip-rule="nonzero"/></clipPath></defs><g clip-path="url(#id1)"><path fill="#008037" d="M 590.140625 427.664062 C 586.59375 442.488281 580.867188 456.984375 573.558594 470.789062 C 566.214844 484.59375 556.886719 497.503906 546.15625 509.238281 C 524.539062 532.5625 496.5625 550.582031 465.898438 560.191406 C 450.597656 565.035156 434.648438 567.765625 418.75 568.53125 L 412.878906 568.664062 L 409.933594 568.71875 L 406.84375 568.632812 L 400.675781 568.457031 L 394.902344 568.003906 C 390.9375 567.789062 387.03125 567.144531 383.113281 566.664062 C 381.152344 566.445312 379.226562 565.992188 377.285156 565.667969 C 375.355469 565.289062 373.402344 565.027344 371.496094 564.550781 C 340.765625 557.914062 312.492188 543.382812 290.152344 523.734375 C 284.46875 518.921875 279.339844 513.605469 274.363281 508.269531 C 269.5625 502.78125 264.941406 497.210938 260.882812 491.328125 C 252.667969 479.65625 245.886719 467.355469 240.867188 454.757812 C 235.796875 442.183594 232.273438 429.414062 230.171875 416.871094 C 229.550781 413.75 229.253906 410.605469 228.851562 407.507812 C 228.394531 404.414062 228.292969 401.3125 228.039062 398.257812 C 227.734375 395.164062 227.816406 392.269531 227.707031 389.328125 C 227.558594 386.519531 227.765625 383.199219 227.824219 380.140625 C 228.289062 368.523438 229.824219 357.191406 232.132812 346.773438 C 234.496094 336.324219 237.765625 326.6875 241.339844 317.867188 C 244.898438 309.023438 249.207031 301.195312 253.304688 294.070312 C 257.675781 287.09375 261.898438 280.820312 266.199219 275.523438 C 274.644531 264.867188 282.507812 257.261719 287.667969 252.683594 C 288.878906 251.503906 290.292969 250.390625 291.417969 249.449219 C 292.507812 248.550781 293.421875 247.792969 294.175781 247.167969 C 335.695312 241.972656 377.605469 227.15625 402.292969 207.421875 C 407.355469 203.378906 412.199219 198.945312 416.835938 194.242188 C 417.324219 194.285156 418.167969 194.347656 419.359375 194.441406 C 421.355469 194.648438 424.339844 194.730469 428.1875 195.246094 C 435.894531 196.101562 447.191406 197.914062 461.066406 202.019531 C 462.8125 202.488281 464.578125 203.066406 466.371094 203.703125 C 468.171875 204.324219 470.019531 204.953125 471.90625 205.601562 C 473.777344 206.292969 475.664062 207.085938 477.605469 207.847656 C 479.550781 208.613281 481.53125 209.398438 483.496094 210.339844 C 491.496094 213.78125 499.765625 218.324219 508.265625 223.664062 C 525.238281 234.363281 542.589844 249.457031 557.492188 269.085938 C 564.929688 278.894531 571.714844 289.835938 577.441406 301.777344 C 583.140625 313.734375 587.71875 326.707031 590.859375 340.386719 C 594 354.03125 595.703125 368.535156 595.671875 383.089844 C 595.5625 397.953125 593.769531 412.835938 590.140625 427.664062 Z M 602.1875 383.195312 C 601.886719 367.828125 599.785156 353.128906 596.238281 339.085938 C 592.683594 325.074219 587.683594 311.863281 581.570312 299.75 C 575.429688 287.652344 568.242188 276.628906 560.4375 266.800781 C 544.796875 247.132812 526.835938 232.230469 509.429688 221.796875 C 500.714844 216.589844 492.261719 212.191406 484.117188 208.90625 C 482.113281 207.996094 480.101562 207.25 478.121094 206.523438 C 476.148438 205.796875 474.234375 205.046875 472.335938 204.390625 C 470.417969 203.785156 468.550781 203.1875 466.722656 202.609375 C 464.902344 202.007812 463.117188 201.46875 461.347656 201.035156 C 447.304688 197.222656 435.957031 195.664062 428.214844 194.976562 C 424.351562 194.546875 421.363281 194.535156 419.363281 194.375 C 418.175781 194.308594 417.335938 194.257812 416.84375 194.230469 C 460.597656 149.796875 484.878906 81.023438 484.878906 81.023438 C 375.382812 155.175781 266.875 100.457031 252.738281 235.601562 C 265.632812 211.699219 301.914062 166.03125 395.003906 151.472656 C 395.003906 151.472656 314.210938 182.433594 279.894531 228.066406 C 279.617188 228.3125 279.285156 228.59375 278.917969 228.914062 C 278.160156 229.570312 277.214844 230.390625 276.097656 231.363281 C 274.972656 232.34375 273.707031 233.378906 272.140625 234.921875 C 270.613281 236.390625 268.898438 238.03125 267.019531 239.832031 C 265.109375 241.632812 263.339844 243.679688 261.257812 245.851562 C 259.167969 247.988281 257.09375 250.441406 254.898438 253.066406 C 253.796875 254.378906 252.628906 255.707031 251.503906 257.128906 C 250.398438 258.578125 249.269531 260.066406 248.105469 261.597656 C 243.402344 267.675781 238.785156 274.84375 234.070312 282.800781 C 229.625 290.914062 225.015625 299.816406 221.238281 309.820312 C 217.441406 319.796875 214.039062 330.667969 211.664062 342.394531 C 209.339844 354.160156 207.921875 366.558594 207.695312 379.796875 C 207.25 405.757812 212.121094 434.421875 223.964844 461.84375 C 229.816406 475.589844 237.558594 488.929688 246.839844 501.503906 C 251.433594 507.832031 256.609375 513.820312 261.996094 519.683594 C 267.550781 525.390625 273.28125 531.046875 279.578125 536.15625 C 304.390625 556.992188 335.414062 572.03125 368.675781 578.421875 C 370.742188 578.882812 372.851562 579.128906 374.9375 579.488281 C 377.035156 579.789062 379.113281 580.21875 381.226562 580.414062 C 385.449219 580.839844 389.660156 581.425781 393.914062 581.570312 L 400.445312 581.921875 L 406.621094 581.957031 L 409.710938 581.972656 L 412.945312 581.847656 L 419.445312 581.558594 C 436.496094 580.359375 453.433594 577.054688 469.621094 571.527344 C 502.046875 560.558594 531.175781 540.785156 553.355469 515.746094 C 564.367188 503.15625 573.832031 489.386719 581.195312 474.773438 C 588.519531 460.15625 594.144531 444.894531 597.492188 429.394531 C 600.917969 413.953125 602.421875 398.246094 602.1875 383.195312 " fill-opacity="1" fill-rule="nonzero"/></g><g clip-path="url(#id2)"><path fill="#737373" d="M 389.476562 254.269531 C 389.390625 254.273438 389.21875 254.273438 389.132812 254.269531 C 381.644531 254.195312 375.101562 264.011719 371.039062 274.710938 C 366.914062 285.601562 365.265625 297.308594 366.085938 305.277344 C 367.242188 316.03125 372.085938 321.832031 378.386719 326.492188 C 383.203125 329.804688 385.964844 338.496094 385.640625 347.480469 C 385.003906 365.152344 384.285156 382.699219 383.324219 400.035156 C 386.675781 395.703125 390.390625 391.445312 394.625 387.292969 C 393.976562 374.113281 393.449219 360.835938 392.96875 347.480469 C 392.640625 338.496094 395.402344 329.804688 400.222656 326.492188 C 406.523438 321.832031 411.367188 316.03125 412.519531 305.277344 C 413.339844 297.308594 411.695312 285.601562 407.566406 274.710938 C 403.503906 264.011719 396.960938 254.195312 389.476562 254.269531 Z M 481.085938 256.183594 C 480.96875 255.089844 480.042969 254.269531 478.945312 254.269531 C 477.75 254.269531 476.789062 255.234375 476.789062 256.421875 L 476.789062 308.609375 C 476.789062 309.695312 476.058594 310.683594 474.996094 310.90625 C 473.535156 311.210938 472.234375 310.09375 472.234375 308.683594 L 472.234375 256.421875 C 472.234375 255.234375 471.269531 254.269531 470.078125 254.269531 L 468.503906 254.269531 C 467.3125 254.269531 466.347656 255.234375 466.347656 256.421875 L 466.347656 308.609375 C 466.347656 309.695312 465.617188 310.683594 464.554688 310.90625 C 463.09375 311.210938 461.792969 310.09375 461.792969 308.683594 L 461.792969 256.421875 C 461.792969 255.234375 460.828125 254.269531 459.640625 254.269531 L 458.0625 254.269531 C 456.871094 254.269531 455.90625 255.234375 455.90625 256.421875 L 455.90625 308.609375 C 455.90625 309.695312 455.175781 310.683594 454.113281 310.90625 C 452.652344 311.210938 451.355469 310.09375 451.355469 308.683594 L 451.355469 256.421875 C 451.355469 255.234375 450.386719 254.269531 449.199219 254.269531 L 447.621094 254.269531 C 446.433594 254.269531 445.46875 255.234375 445.46875 256.421875 L 445.46875 308.609375 C 445.46875 309.695312 444.738281 310.683594 443.675781 310.90625 C 442.210938 311.210938 440.914062 310.09375 440.914062 308.683594 L 440.914062 256.421875 C 440.914062 255.234375 439.949219 254.269531 438.761719 254.269531 C 437.660156 254.269531 436.734375 255.089844 436.617188 256.183594 C 435.5 266.386719 435.171875 300.773438 435.632812 305.277344 C 436.789062 316.03125 441.632812 321.832031 447.933594 326.492188 C 452.753906 329.804688 455.515625 338.496094 455.183594 347.480469 C 455.132812 348.914062 455.078125 350.339844 455.027344 351.769531 C 457.632812 350.628906 460.136719 349.480469 462.546875 348.347656 C 462.539062 348.054688 462.527344 347.769531 462.515625 347.480469 C 462.191406 338.496094 464.953125 329.804688 469.769531 326.492188 C 476.070312 321.832031 480.914062 316.03125 482.066406 305.277344 C 482.53125 300.773438 482.203125 266.386719 481.085938 256.183594 " fill-opacity="1" fill-rule="nonzero"/></g><path fill="#80cc28" d="M 490.753906 363.484375 C 490.753906 363.484375 458.792969 445.898438 342.902344 473.246094 C 376.941406 435.25 374.601562 389.917969 446.984375 361.265625 C 483.980469 346.621094 505.25 330.039062 505.25 330.039062 C 505.25 330.039062 504.289062 508.886719 379.015625 474.039062 C 379.015625 474.039062 460.25 456.664062 490.753906 363.484375 " fill-opacity="1" fill-rule="nonzero"/><path fill="#00923e" d="M 309.261719 316.164062 C 309.261719 316.164062 311.527344 370.960938 374.109375 410.210938 C 361.730469 381.089844 372.179688 354.933594 335.410156 323.625 C 316.617188 307.617188 307.445312 293.625 307.445312 293.625 C 307.445312 293.625 272.199219 398.847656 352.742188 403.449219 C 352.742188 403.449219 308.519531 376.988281 309.261719 316.164062 " fill-opacity="1" fill-rule="nonzero"/><g clip-path="url(#id3)"><path fill="#000000" d="M 468.585938 510.183594 L 468.539062 510.128906 L 468.644531 510.226562 C 468.628906 510.222656 468.671875 510.25 468.585938 510.183594 Z M 336.359375 510.214844 L 336.484375 510.089844 L 336.414062 510.171875 C 336.328125 510.238281 336.375 510.214844 336.359375 510.214844 Z M 544.007812 369.660156 C 543.566406 373.007812 543.179688 376.339844 542.796875 379.652344 C 542.253906 382.953125 541.554688 386.222656 541.011719 389.488281 C 540.335938 392.738281 539.414062 395.941406 538.636719 399.144531 C 538.285156 400.757812 537.652344 402.300781 537.167969 403.875 C 536.636719 405.4375 536.160156 407.011719 535.660156 408.578125 C 535.214844 410.15625 534.523438 411.660156 533.9375 413.191406 L 532.125 417.765625 C 531.574219 419.300781 530.789062 420.753906 530.097656 422.230469 L 527.976562 426.644531 C 527.324219 428.136719 526.4375 429.519531 525.660156 430.949219 L 523.285156 435.207031 C 522.546875 436.652344 521.585938 437.972656 520.714844 439.339844 L 518.0625 443.410156 C 517.226562 444.792969 516.1875 446.046875 515.238281 447.355469 L 512.347656 451.234375 C 511.429688 452.566406 510.289062 453.722656 509.265625 454.964844 L 506.128906 458.628906 C 503.996094 461.035156 501.671875 463.265625 499.46875 465.589844 C 497.167969 467.820312 494.714844 469.894531 492.363281 472.050781 C 489.914062 474.109375 487.359375 476.03125 484.875 478.03125 C 482.28125 479.886719 479.621094 481.640625 477.007812 483.449219 L 468.816406 488.332031 L 460.324219 492.621094 L 443.464844 501.128906 L 461.527344 506.972656 L 461.699219 507.03125 C 460.3125 507.421875 458.863281 507.785156 457.410156 508.113281 C 454 508.894531 450.429688 509.503906 446.828125 510.03125 C 439.613281 511.066406 432.230469 511.699219 424.824219 512.164062 C 421.117188 512.382812 417.402344 512.546875 413.679688 512.648438 C 409.925781 512.75 406.339844 512.78125 402.460938 512.785156 C 398.824219 512.792969 395.035156 512.75 391.332031 512.65625 C 387.613281 512.550781 383.894531 512.390625 380.191406 512.167969 C 372.785156 511.699219 365.398438 511.089844 358.1875 510.042969 C 354.585938 509.519531 351.011719 508.910156 347.601562 508.125 C 346.125 507.796875 344.648438 507.429688 343.242188 507.03125 L 343.480469 506.953125 L 361.488281 501.125 L 344.679688 492.636719 L 336.1875 488.347656 L 327.992188 483.472656 C 325.382812 481.660156 322.714844 479.90625 320.125 478.050781 C 317.640625 476.050781 315.089844 474.125 312.636719 472.070312 C 310.28125 469.914062 307.828125 467.84375 305.53125 465.609375 C 303.324219 463.285156 301 461.054688 298.867188 458.644531 L 295.730469 454.976562 C 294.707031 453.734375 293.5625 452.578125 292.648438 451.25 L 289.757812 447.363281 C 288.808594 446.058594 287.773438 444.804688 286.929688 443.425781 L 284.28125 439.351562 C 283.410156 437.984375 282.453125 436.660156 281.707031 435.21875 L 279.335938 430.957031 C 278.554688 429.53125 277.675781 428.148438 277.019531 426.652344 L 274.902344 422.238281 C 274.207031 420.757812 273.425781 419.308594 272.875 417.769531 L 271.058594 413.199219 C 270.480469 411.667969 269.785156 410.160156 269.339844 408.582031 L 267.832031 403.878906 C 267.347656 402.304688 266.714844 400.757812 266.367188 399.148438 C 265.589844 395.945312 264.667969 392.738281 263.996094 389.496094 C 263.457031 386.242188 262.757812 382.992188 262.214844 379.679688 C 261.832031 376.339844 261.445312 373 261.007812 369.660156 C 260.8125 373.023438 260.664062 376.382812 260.519531 379.738281 C 260.527344 383.105469 260.667969 386.507812 260.804688 389.925781 C 261.035156 393.316406 261.511719 396.679688 261.859375 400.085938 C 261.996094 401.792969 262.421875 403.445312 262.695312 405.132812 L 263.664062 410.175781 C 263.945312 411.875 264.476562 413.5 264.898438 415.164062 L 266.25 420.136719 C 266.648438 421.820312 267.285156 423.414062 267.832031 425.046875 L 269.535156 429.9375 C 270.667969 433.199219 272.195312 436.304688 273.546875 439.492188 C 274.195312 441.105469 275.070312 442.601562 275.851562 444.148438 L 278.269531 448.761719 C 279.023438 450.332031 280.027344 451.75 280.921875 453.242188 L 283.683594 457.671875 C 284.5625 459.1875 285.671875 460.53125 286.664062 461.964844 L 289.730469 466.207031 C 291.851562 468.984375 294.191406 471.582031 296.421875 474.28125 C 298.753906 476.890625 301.257812 479.34375 303.683594 481.882812 C 306.21875 484.304688 308.898438 486.578125 311.515625 488.933594 C 314.246094 491.148438 317.066406 493.257812 319.847656 495.425781 C 321.585938 496.628906 323.355469 497.796875 325.125 498.960938 C 324.945312 499.132812 324.761719 499.320312 324.5625 499.550781 C 324.195312 499.964844 323.851562 500.347656 323.46875 500.917969 C 323.285156 501.183594 323.109375 501.453125 322.9375 501.726562 C 322.757812 502.050781 322.589844 502.390625 322.429688 502.730469 C 322.105469 503.359375 321.835938 504.238281 321.636719 505.050781 C 321.539062 505.460938 321.488281 505.941406 321.445312 506.386719 L 321.398438 507.070312 L 321.390625 507.238281 C 321.371094 507.09375 321.511719 509.25 321.453125 508.351562 L 321.464844 508.441406 L 321.503906 508.796875 L 321.527344 508.972656 L 321.539062 509.089844 L 321.625 509.492188 C 321.839844 510.542969 322.265625 511.730469 322.707031 512.570312 C 323.03125 513.136719 323.386719 513.691406 323.769531 514.226562 C 324.136719 514.734375 324.460938 515.066406 324.832031 515.476562 C 325.011719 515.667969 325.203125 515.875 325.378906 516.042969 L 325.871094 516.480469 C 326.199219 516.765625 326.546875 517.066406 326.878906 517.328125 L 327.8125 517.984375 C 329.0625 518.84375 330.199219 519.445312 331.316406 520 C 335.722656 522.109375 339.710938 523.242188 343.722656 524.296875 C 347.726562 525.296875 351.667969 526.046875 355.601562 526.699219 C 363.464844 527.96875 371.277344 528.855469 379.089844 529.351562 C 383 529.609375 386.902344 529.808594 390.804688 529.941406 C 394.722656 530.066406 398.566406 530.136719 402.546875 530.15625 C 406.304688 530.148438 410.34375 530.070312 414.210938 529.945312 C 418.109375 529.816406 422.015625 529.617188 425.925781 529.359375 C 433.738281 528.859375 441.550781 527.992188 449.414062 526.710938 C 453.351562 526.058594 457.292969 525.3125 461.296875 524.308594 C 465.3125 523.269531 469.296875 522.121094 473.710938 520.019531 C 474.824219 519.460938 475.960938 518.859375 477.210938 518 L 478.148438 517.34375 C 478.476562 517.078125 478.824219 516.78125 479.15625 516.5 L 479.652344 516.054688 C 479.828125 515.886719 480.019531 515.683594 480.199219 515.492188 C 480.566406 515.078125 480.890625 514.746094 481.265625 514.238281 C 481.640625 513.703125 481.996094 513.148438 482.320312 512.578125 C 482.664062 511.910156 482.96875 511.125 483.207031 510.375 C 483.445312 509.597656 483.566406 508.625 483.625 507.746094 L 483.644531 507.410156 C 483.675781 508.03125 483.605469 506.363281 483.605469 506.527344 L 483.605469 506.484375 L 483.582031 506.304688 L 483.5625 506.128906 L 483.507812 505.714844 C 483.347656 504.605469 482.878906 503.210938 482.605469 502.722656 C 482.441406 502.378906 482.269531 502.042969 482.089844 501.71875 C 481.921875 501.445312 481.742188 501.171875 481.558594 500.90625 C 481.179688 500.335938 480.832031 499.953125 480.464844 499.535156 C 480.273438 499.3125 480.09375 499.132812 479.921875 498.964844 C 481.6875 497.808594 483.449219 496.648438 485.179688 495.445312 C 487.964844 493.28125 490.785156 491.167969 493.515625 488.953125 C 496.128906 486.601562 498.804688 484.320312 501.351562 481.90625 C 503.773438 479.363281 506.277344 476.90625 508.609375 474.300781 C 510.839844 471.597656 513.183594 469 515.304688 466.222656 L 518.371094 461.980469 C 519.363281 460.542969 520.472656 459.203125 521.347656 457.691406 L 524.109375 453.253906 C 525.003906 451.765625 526.007812 450.339844 526.765625 448.773438 L 529.179688 444.15625 C 529.96875 442.613281 530.835938 441.117188 531.488281 439.503906 L 533.570312 434.75 C 534.246094 433.15625 534.976562 431.597656 535.503906 429.941406 L 537.203125 425.054688 C 537.746094 423.421875 538.382812 421.828125 538.78125 420.144531 L 540.128906 415.167969 C 540.554688 413.503906 541.085938 411.878906 541.363281 410.179688 C 542 406.8125 542.738281 403.472656 543.164062 400.085938 C 543.515625 396.683594 543.992188 393.316406 544.21875 389.929688 C 544.351562 386.53125 544.492188 383.144531 544.5 379.769531 C 544.355469 376.382812 544.203125 373.011719 544.007812 369.660156 " fill-opacity="1" fill-rule="nonzero"/></g><path fill="#fffd1e" d="M 584.550781 528.5625 C 584.988281 528.96875 585.40625 529.394531 585.804688 529.839844 C 586.199219 530.285156 586.574219 530.75 586.925781 531.230469 C 587.28125 531.714844 587.609375 532.210938 587.914062 532.722656 C 588.21875 533.238281 588.5 533.765625 588.753906 534.304688 C 589.007812 534.84375 589.234375 535.394531 589.4375 535.957031 C 589.640625 536.519531 589.8125 537.089844 589.960938 537.667969 C 590.105469 538.25 590.226562 538.832031 590.316406 539.421875 C 590.40625 540.015625 590.46875 540.609375 590.503906 541.203125 C 590.539062 541.800781 590.542969 542.398438 590.519531 542.992188 C 590.496094 543.589844 590.445312 544.183594 590.363281 544.777344 C 590.285156 545.371094 590.175781 545.957031 590.039062 546.539062 C 589.902344 547.121094 589.738281 547.691406 589.546875 548.257812 C 589.355469 548.824219 589.136719 549.378906 588.894531 549.925781 C 588.648438 550.46875 588.378906 551.003906 588.082031 551.519531 C 587.785156 552.039062 587.464844 552.542969 587.121094 553.03125 C 586.777344 553.519531 586.410156 553.992188 586.023438 554.445312 C 581.882812 558.601562 577.609375 562.613281 573.191406 566.476562 C 568.777344 570.339844 564.234375 574.042969 559.566406 577.59375 C 554.894531 581.140625 550.105469 584.527344 545.203125 587.742188 C 540.300781 590.960938 535.292969 594.007812 530.179688 596.878906 C 525.066406 599.75 519.859375 602.445312 514.558594 604.957031 C 509.261719 607.46875 503.882812 609.796875 498.421875 611.9375 C 492.960938 614.078125 487.4375 616.027344 481.84375 617.789062 C 476.25 619.546875 470.601562 621.113281 464.898438 622.480469 C 459.199219 623.851562 453.457031 625.019531 447.675781 625.992188 C 441.894531 626.964844 436.085938 627.738281 430.25 628.308594 C 424.417969 628.878906 418.570312 629.25 412.707031 629.414062 C 406.847656 629.582031 400.992188 629.546875 395.132812 629.308594 C 389.277344 629.070312 383.433594 628.632812 377.605469 627.992188 C 371.78125 627.347656 365.984375 626.507812 360.214844 625.464844 C 354.445312 624.421875 348.722656 623.183594 343.039062 621.746094 C 337.355469 620.308594 331.730469 618.675781 326.160156 616.847656 C 320.589844 615.023438 315.09375 613.007812 309.664062 610.800781 C 304.234375 608.59375 298.886719 606.203125 293.621094 603.625 C 288.355469 601.050781 283.1875 598.296875 278.113281 595.363281 C 273.039062 592.429688 268.070312 589.324219 263.210938 586.046875 C 258.351562 582.773438 253.609375 579.332031 248.988281 575.726562 C 244.363281 572.125 239.871094 568.363281 235.507812 564.449219 C 231.144531 560.535156 226.921875 556.472656 222.839844 552.265625 C 218.757812 548.058594 214.824219 543.714844 211.042969 539.238281 C 207.257812 534.757812 203.636719 530.152344 200.171875 525.425781 C 196.707031 520.695312 193.40625 515.851562 190.277344 510.894531 C 187.144531 505.9375 184.191406 500.875 181.40625 495.714844 C 178.625 490.550781 176.027344 485.300781 173.605469 479.957031 C 171.1875 474.617188 168.957031 469.195312 166.910156 463.699219 C 164.863281 458.203125 163.011719 452.644531 161.351562 447.019531 C 159.6875 441.394531 158.222656 435.71875 156.953125 429.992188 C 155.683594 424.265625 154.609375 418.503906 153.738281 412.703125 C 153.695312 412.105469 153.675781 411.507812 153.6875 410.914062 C 153.699219 410.316406 153.742188 409.71875 153.808594 409.125 C 153.878906 408.53125 153.976562 407.945312 154.101562 407.359375 C 154.226562 406.777344 154.378906 406.199219 154.5625 405.628906 C 154.742188 405.058594 154.949219 404.5 155.183594 403.953125 C 155.417969 403.402344 155.679688 402.863281 155.964844 402.339844 C 156.25 401.816406 156.558594 401.304688 156.894531 400.8125 C 157.230469 400.316406 157.585938 399.839844 157.96875 399.378906 C 158.347656 398.917969 158.75 398.476562 159.171875 398.054688 C 159.59375 397.632812 160.039062 397.230469 160.5 396.851562 C 160.960938 396.472656 161.4375 396.117188 161.933594 395.78125 C 162.429688 395.449219 162.9375 395.140625 163.464844 394.855469 C 163.988281 394.570312 164.527344 394.3125 165.074219 394.078125 C 165.625 393.84375 166.183594 393.640625 166.753906 393.460938 C 167.324219 393.28125 167.902344 393.128906 168.484375 393.003906 C 169.070312 392.878906 169.65625 392.785156 170.25 392.71875 L 208.992188 389.742188 C 209.617188 389.660156 210.246094 389.609375 210.878906 389.59375 C 211.507812 389.574219 212.140625 389.589844 212.769531 389.636719 C 213.398438 389.683594 214.023438 389.761719 214.644531 389.871094 C 215.269531 389.980469 215.882812 390.125 216.488281 390.296875 C 217.097656 390.46875 217.695312 390.671875 218.28125 390.90625 C 218.867188 391.140625 219.441406 391.402344 220 391.691406 C 220.5625 391.984375 221.105469 392.304688 221.632812 392.652344 C 222.160156 392.996094 222.667969 393.371094 223.160156 393.769531 C 223.648438 394.167969 224.117188 394.589844 224.5625 395.035156 C 225.011719 395.480469 225.433594 395.949219 225.832031 396.4375 C 226.234375 396.929688 226.605469 397.4375 226.957031 397.964844 C 227.304688 398.492188 227.625 399.035156 227.917969 399.59375 C 228.210938 400.152344 228.472656 400.726562 228.707031 401.3125 C 228.941406 401.898438 229.148438 402.496094 229.320312 403.105469 C 229.496094 403.710938 229.636719 404.324219 229.75 404.949219 C 229.863281 405.570312 229.941406 406.195312 229.988281 406.824219 C 230.707031 410.753906 231.554688 414.65625 232.53125 418.527344 C 233.511719 422.398438 234.617188 426.234375 235.855469 430.03125 C 237.089844 433.832031 238.449219 437.582031 239.9375 441.289062 C 241.425781 444.996094 243.035156 448.648438 244.765625 452.246094 C 246.5 455.84375 248.351562 459.378906 250.320312 462.855469 C 252.289062 466.328125 254.371094 469.730469 256.570312 473.066406 C 258.769531 476.398438 261.074219 479.65625 263.492188 482.832031 C 265.90625 486.011719 268.425781 489.105469 271.050781 492.117188 C 273.671875 495.125 276.394531 498.042969 279.214844 500.871094 C 282.035156 503.699219 284.945312 506.425781 287.945312 509.058594 C 290.949219 511.6875 294.035156 514.214844 297.207031 516.640625 C 300.378906 519.0625 303.628906 521.378906 306.957031 523.585938 C 310.285156 525.789062 313.683594 527.882812 317.148438 529.859375 C 320.617188 531.835938 324.148438 533.695312 327.742188 535.4375 C 331.332031 537.175781 334.980469 538.796875 338.679688 540.289062 C 342.382812 541.785156 346.128906 543.15625 349.921875 544.398438 C 353.714844 545.644531 357.546875 546.757812 361.414062 547.746094 C 365.285156 548.734375 369.179688 549.589844 373.105469 550.3125 C 377.03125 551.039062 380.980469 551.632812 384.945312 552.089844 C 388.910156 552.550781 392.886719 552.878906 396.875 553.070312 C 400.863281 553.265625 404.851562 553.324219 408.84375 553.25 C 412.835938 553.171875 416.820312 552.964844 420.800781 552.621094 C 424.777344 552.28125 428.738281 551.804688 432.6875 551.195312 C 436.632812 550.589844 440.554688 549.847656 444.449219 548.976562 C 448.347656 548.105469 452.210938 547.105469 456.039062 545.972656 C 459.871094 544.84375 463.65625 543.585938 467.402344 542.199219 C 471.148438 540.8125 474.84375 539.304688 478.488281 537.671875 C 482.132812 536.039062 485.71875 534.285156 489.246094 532.410156 C 492.773438 530.539062 496.234375 528.546875 499.625 526.441406 C 503.019531 524.335938 506.339844 522.117188 509.585938 519.789062 C 512.828125 517.460938 515.992188 515.027344 519.074219 512.484375 C 522.15625 509.941406 525.148438 507.300781 528.054688 504.558594 C 528.46875 504.082031 528.902344 503.625 529.359375 503.1875 C 529.820312 502.753906 530.296875 502.34375 530.796875 501.957031 C 531.296875 501.570312 531.816406 501.210938 532.351562 500.875 C 532.890625 500.542969 533.441406 500.238281 534.007812 499.960938 C 534.574219 499.679688 535.15625 499.433594 535.75 499.214844 C 536.339844 498.996094 536.941406 498.808594 537.554688 498.648438 C 538.167969 498.492188 538.785156 498.367188 539.410156 498.269531 C 540.03125 498.175781 540.660156 498.113281 541.292969 498.082031 C 541.921875 498.050781 542.550781 498.050781 543.183594 498.085938 C 543.8125 498.117188 544.441406 498.183594 545.066406 498.28125 C 545.6875 498.375 546.308594 498.503906 546.917969 498.664062 C 547.527344 498.824219 548.128906 499.011719 548.722656 499.234375 C 549.3125 499.453125 549.890625 499.703125 550.457031 499.984375 C 551.023438 500.261719 551.574219 500.570312 552.109375 500.90625 C 552.644531 501.238281 553.164062 501.601562 553.660156 501.988281 C 554.160156 502.378906 554.636719 502.789062 555.09375 503.226562 Z M 584.550781 528.5625 " fill-opacity="1" fill-rule="nonzero"/><g fill="#000000" fill-opacity="1"><g transform="translate(178.115257, 412.620243)"><g><path d="M 5.25 24.019531 C 6.289062 28.367188 8.71875 28.910156 11.28125 28.785156 C 13.839844 28.664062 17.90625 28.277344 23.785156 28.339844 C 29.609375 28.367188 32.238281 28.324219 36.136719 28.46875 C 37.023438 28.5 37.785156 28.417969 38.386719 28.273438 C 40.46875 27.773438 40.992188 26.28125 40.273438 23.277344 C 39.34375 19.390625 38.21875 18.78125 33.964844 18.769531 C 32.429688 18.695312 29.824219 18.636719 26.78125 18.582031 C 25.742188 15.257812 24.761719 11.972656 23.910156 8.609375 C 26.757812 8.660156 28.808594 8.660156 31.417969 8.722656 C 32.304688 8.753906 33.066406 8.667969 33.667969 8.527344 C 35.746094 8.027344 36.269531 6.535156 35.550781 3.527344 C 34.625 -0.355469 33.5 -0.96875 29.246094 -0.976562 C 26.835938 -1.035156 21.796875 -1.25 16.503906 -1.109375 C 11.152344 -1.003906 7.378906 -0.835938 3.996094 -0.660156 C 3.328125 -0.601562 2.703125 -0.546875 2.195312 -0.425781 C 0.300781 0.0273438 -0.207031 1.175781 0.53125 4.273438 C 1.570312 8.621094 4.011719 9.210938 6.558594 9.039062 C 8.488281 8.921875 11.210938 8.660156 14.914062 8.609375 C 15.8125 11.960938 16.816406 15.339844 17.957031 18.683594 C 14.265625 18.785156 11.371094 18.9375 8.714844 19.085938 C 8.046875 19.148438 7.421875 19.199219 6.914062 19.320312 C 5.019531 19.773438 4.511719 20.921875 5.25 24.019531 Z M 5.25 24.019531 "/></g></g></g><g fill="#000000" fill-opacity="1"><g transform="translate(191.127114, 459.933863)"><g><path d="M 6.464844 14.300781 C 8.113281 17.78125 9.21875 19.886719 10.488281 22.230469 C 11.800781 24.554688 13.328125 25.671875 16.964844 24.792969 C 17.433594 24.675781 17.839844 24.535156 18.226562 24.351562 C 19.859375 23.578125 20.25 22.289062 19.332031 20.355469 C 18.621094 18.851562 16.839844 15.539062 14.964844 11.585938 C 14.433594 10.46875 13.96875 9.375 13.542969 8.363281 C 14.613281 7.960938 15.878906 7.519531 17.378906 7.019531 L 20.476562 13.445312 C 21.71875 16.066406 23.621094 16.636719 26.164062 16.007812 C 26.722656 15.851562 27.277344 15.691406 27.707031 15.488281 C 29.425781 14.671875 29.902344 13.34375 28.820312 11.066406 L 25.828125 4.75 C 27.089844 4.417969 28.136719 4.183594 29.121094 3.925781 L 29.382812 4.484375 C 31.503906 8.953125 32.8125 12.382812 34.25 15.964844 C 35.765625 19.613281 37.554688 19.5 40.480469 18.902344 C 41.292969 18.730469 41.980469 18.507812 42.539062 18.246094 C 43.871094 17.613281 44.230469 16.707031 43.523438 14.882812 C 42.597656 12.375 41.226562 8.816406 38.742188 3.46875 C 36.707031 -0.828125 35.003906 -3.96875 33.449219 -6.808594 C 31.828125 -9.671875 30.425781 -9.742188 27.46875 -8.761719 C 26.976562 -8.582031 26.527344 -8.421875 26.140625 -8.238281 C 24.636719 -7.523438 24.046875 -6.664062 24.4375 -5.167969 C 21.808594 -4.5 18.941406 -3.667969 16.675781 -3.117188 C 11.542969 -1.84375 6.804688 0.140625 4.847656 1.121094 C 3.210938 2.003906 2.152344 3.875 3.113281 6.679688 C 3.675781 8.308594 5 11.101562 6.464844 14.300781 Z M 6.464844 14.300781 "/></g></g></g><g fill="#000000" fill-opacity="1"><g transform="translate(212.132488, 500.731728)"><g><path d="M 8.214844 11.429688 C 10.515625 14.519531 12.011719 16.367188 13.6875 18.378906 C 15.460938 20.441406 17.207031 21.273438 20.570312 19.660156 C 21.007812 19.453125 21.378906 19.234375 21.683594 19.007812 C 23.132812 17.925781 23.269531 16.519531 21.992188 14.804688 C 21.027344 13.507812 18.632812 10.609375 16.019531 7.101562 C 15.28125 6.109375 14.636719 5.164062 14.023438 4.261719 C 15.832031 3.03125 18.652344 1.402344 22.121094 -0.230469 C 28.835938 -3.390625 29.851562 -3.617188 33.050781 -4.8125 C 33.632812 -5.070312 34.109375 -5.304688 34.453125 -5.558594 C 36.054688 -6.753906 35.574219 -8.351562 34.277344 -10.410156 C 34.0625 -10.78125 33.835938 -11.085938 33.605469 -11.390625 C 32.242188 -13.222656 30.792969 -13.980469 28.25 -13.332031 C 25.175781 -12.523438 17.984375 -9.125 14.8125 -7.652344 C 10.03125 -5.394531 5.769531 -2.519531 4.046875 -1.175781 C 2.585938 -0.0273438 1.914062 2.011719 3.40625 4.574219 C 4.277344 6.0625 6.152344 8.578125 8.214844 11.429688 Z M 8.214844 11.429688 "/></g></g></g><g fill="#000000" fill-opacity="1"><g transform="translate(239.648272, 535.364145)"><g><path d="M 10.261719 9.636719 C 13.113281 12.222656 14.9375 13.75 16.96875 15.402344 C 19.105469 17.082031 20.980469 17.566406 23.96875 15.332031 C 24.359375 15.046875 24.679688 14.761719 24.9375 14.480469 C 26.148438 13.140625 26.015625 11.734375 24.429688 10.296875 C 23.234375 9.210938 20.324219 6.824219 17.085938 3.886719 C 16.171875 3.054688 15.355469 2.253906 14.578125 1.484375 C 16.121094 -0.0742188 18.574219 -2.210938 21.664062 -4.480469 C 27.644531 -8.878906 28.597656 -9.292969 31.507812 -11.085938 C 32.027344 -11.445312 32.449219 -11.769531 32.738281 -12.085938 C 34.082031 -13.566406 33.300781 -15.042969 31.636719 -16.8125 C 31.351562 -17.136719 31.066406 -17.390625 30.785156 -17.648438 C 29.097656 -19.179688 27.527344 -19.644531 25.15625 -18.519531 C 22.296875 -17.132812 15.894531 -12.414062 13.0625 -10.359375 C 8.804688 -7.226562 5.179688 -3.582031 3.742188 -1.929688 C 2.53125 -0.527344 2.265625 1.605469 4.226562 3.835938 C 5.363281 5.125 7.6875 7.234375 10.261719 9.636719 Z M 10.261719 9.636719 "/></g></g></g><g fill="#000000" fill-opacity="1"><g transform="translate(273.344376, 564.424925)"><g><path d="M 13.992188 8.664062 C 24.152344 14.554688 34.457031 11.570312 39.957031 5.308594 C 40.808594 4.316406 41.550781 3.320312 42.125 2.332031 C 44.769531 -2.234375 44.328125 -6.777344 40.4375 -10.683594 C 41.046875 -11.261719 41.464844 -11.792969 41.726562 -12.242188 C 42.394531 -13.394531 41.949219 -14.148438 40.835938 -15.066406 C 40.125 -15.644531 39.433594 -16.15625 38.40625 -16.753906 C 28.535156 -22.476562 17.691406 -21.785156 10.039062 -13.140625 C 9.078125 -12.050781 8.238281 -10.886719 7.570312 -9.734375 C 3.96875 -3.523438 4.863281 3.367188 13.992188 8.664062 Z M 18.789062 -8.230469 C 22.15625 -12.050781 26.925781 -12.691406 31.246094 -10.1875 L 31.449219 -10.066406 C 30.796875 -9.511719 30.339844 -9.007812 30.078125 -8.554688 C 29.554688 -7.648438 29.785156 -6.910156 30.480469 -6.121094 C 32.40625 -3.851562 33 -2.410156 32 -0.679688 C 31.785156 -0.3125 31.503906 0.078125 31.160156 0.480469 C 28.273438 3.753906 23.710938 4.132812 19.925781 1.9375 C 16.390625 -0.113281 15.417969 -2.988281 17.300781 -6.234375 C 17.683594 -6.894531 18.171875 -7.546875 18.789062 -8.230469 Z M 18.789062 -8.230469 "/></g></g></g><g fill="#000000" fill-opacity="1"><g transform="translate(319.166141, 588.40534)"><g/></g></g><g fill="#000000" fill-opacity="1"><g transform="translate(347.02267, 598.627247)"><g><path d="M 10.363281 2.054688 C 12.339844 2.355469 14.265625 2.019531 16.382812 0.417969 C 19.316406 -1.78125 22.394531 -5.59375 25.027344 -9.328125 C 24.941406 -5.253906 25.199219 -0.9375 26.316406 1.832031 C 27.105469 3.921875 28.558594 4.816406 30.4375 5.101562 C 32.410156 5.402344 34.53125 5.050781 36.976562 3.207031 C 42.851562 -1.285156 49.585938 -11.757812 53.550781 -22.648438 C 53.648438 -22.972656 53.738281 -23.246094 53.777344 -23.527344 C 54.085938 -25.550781 52.308594 -26.203125 49.394531 -26.648438 C 46.105469 -27.148438 44.574219 -26.5625 43.59375 -23.921875 C 41.453125 -18.042969 38.199219 -12.765625 35.367188 -9.011719 C 35.144531 -12.601562 35 -17.675781 35.117188 -23.523438 C 35.277344 -27.730469 34.246094 -28.851562 31.519531 -29.265625 C 29.167969 -29.621094 27.257812 -28.757812 24.777344 -25.09375 C 23.285156 -22.867188 19.53125 -17.472656 16.054688 -12.617188 C 16.117188 -14.289062 16.28125 -16.332031 16.636719 -18.683594 C 17.050781 -21.410156 17.726562 -24.578125 18.691406 -28.085938 C 19.324219 -30.347656 18.328125 -31.410156 15.699219 -31.808594 C 15.132812 -31.894531 14.421875 -31.957031 13.65625 -31.976562 C 10.683594 -32.042969 9.152344 -31.457031 8.40625 -28.445312 C 7.601562 -25.054688 6.4375 -20.230469 5.703125 -15.390625 C 4.902344 -10.125 4.582031 -4.835938 5.84375 -1.421875 C 6.5625 0.804688 8.15625 1.71875 10.363281 2.054688 Z M 10.363281 2.054688 "/></g></g></g><g fill="#000000" fill-opacity="1"><g transform="translate(407.833411, 605.334171)"><g><path d="M 2.925781 0.15625 C 3.5 0.152344 3.972656 0.105469 4.445312 0.0625 C 7.191406 -0.191406 8.296875 -1.15625 8.898438 -4.457031 C 9.21875 -6.113281 9.59375 -7.722656 10.027344 -9.242188 L 22.554688 -10.074219 C 22.53125 -8.785156 22.417969 -7.4375 22.210938 -6.082031 C 22.089844 -5.351562 22.097656 -4.734375 22.144531 -4.257812 C 22.320312 -2.367188 23.550781 -1.953125 26.21875 -2.011719 C 26.699219 -2.007812 27.171875 -2.054688 27.597656 -2.09375 C 30.25 -2.339844 31.402344 -3.257812 32.007812 -6.515625 C 32.554688 -9.382812 32.648438 -12.449219 32.371094 -15.429688 C 31.570312 -24.046875 27.703125 -32.234375 22.632812 -34.867188 C 21.332031 -35.507812 20.015625 -35.816406 18.640625 -35.6875 C 17.222656 -35.554688 15.796875 -34.945312 14.320312 -33.902344 C 7.605469 -29.074219 1.132812 -15.53125 -1.046875 -3.53125 C -1.132812 -2.949219 -1.183594 -2.46875 -1.144531 -2.042969 C -0.988281 -0.335938 0.351562 0.207031 2.925781 0.15625 Z M 13.433594 -18.300781 C 14.828125 -21.246094 16.3125 -23.773438 17.664062 -25.664062 C 19.015625 -23.976562 20.332031 -21.664062 21.261719 -18.835938 Z M 13.433594 -18.300781 "/></g></g></g><g fill="#000000" fill-opacity="1"><g transform="translate(457.068525, 599.019991)"><g><path d="M 12.945312 -3.527344 C 24.839844 -7.226562 26.609375 -12.90625 26.054688 -18.210938 C 25.996094 -18.886719 25.855469 -19.492188 25.671875 -20.082031 C 24.558594 -23.667969 21.164062 -25.453125 13.089844 -25.480469 C 9.105469 -25.488281 6.390625 -25.886719 6.289062 -26.851562 C 6.21875 -27.726562 7.164062 -28.367188 9.34375 -29.046875 C 11.613281 -29.75 15.128906 -30.445312 17.730469 -30.410156 C 18.722656 -30.417969 19.550781 -30.476562 20.234375 -30.691406 C 21.59375 -31.113281 22.277344 -32.121094 22.824219 -34.53125 C 23.183594 -36.089844 23.253906 -37.15625 23.039062 -37.835938 C 22.742188 -38.789062 21.984375 -39.152344 20.921875 -39.367188 C 18.253906 -39.933594 15.21875 -40.085938 9.410156 -38.277344 C 0.0117188 -35.355469 -3.921875 -30.546875 -3.265625 -24.277344 C -3.167969 -23.3125 -3.003906 -22.46875 -2.761719 -21.695312 C -1.5625 -17.835938 1.652344 -16.296875 10.113281 -15.992188 C 13.148438 -15.839844 16.214844 -15.746094 16.316406 -14.78125 C 16.390625 -14.058594 15.734375 -13.605469 14.148438 -13.113281 C 9.515625 -11.671875 6.101562 -11.605469 2.402344 -12.449219 C 1.910156 -12.59375 1.425781 -12.542969 0.972656 -12.402344 C -0.207031 -12.035156 -1.253906 -10.761719 -2.421875 -8.109375 C -2.957031 -6.949219 -3.082031 -5.914062 -2.828125 -5.09375 C -2.5625 -4.234375 -1.839844 -3.511719 -0.601562 -3.050781 C 2.921875 -1.65625 7.042969 -1.691406 12.945312 -3.527344 Z M 12.945312 -3.527344 "/></g></g></g><g fill="#000000" fill-opacity="1"><g transform="translate(500.185946, 584.176878)"><g><path d="M -6.371094 -24.402344 C -5.707031 -24.769531 -2.488281 -26.710938 0.675781 -28.460938 C 1.257812 -25.144531 2.214844 -20.566406 3.65625 -16.089844 C 4.636719 -12.941406 6.011719 -8.972656 6.679688 -7.277344 C 6.796875 -6.964844 6.9375 -6.714844 7.074219 -6.464844 C 8.085938 -4.632812 9.425781 -4.667969 11.382812 -5.75 C 11.671875 -5.910156 12.007812 -6.09375 12.359375 -6.34375 C 16.003906 -8.792969 16.113281 -10.753906 15.199219 -12.800781 C 14.300781 -14.914062 13.496094 -17.457031 12.320312 -21.152344 C 10.855469 -25.667969 9.914062 -29.929688 9.34375 -32.925781 C 11.46875 -33.992188 13.636719 -35.082031 15.539062 -35.96875 C 19.042969 -37.691406 18.820312 -39.46875 18.039062 -42.351562 C 17.816406 -43.152344 17.554688 -43.820312 17.253906 -44.363281 C 16.542969 -45.652344 15.613281 -45.953125 13.839844 -45.136719 C 11.394531 -44.054688 6.976562 -41.722656 2.742188 -39.65625 C 0.742188 -38.65625 -1.445312 -37.503906 -3.484375 -36.375 C -5.8125 -35.085938 -7.914062 -33.871094 -9.34375 -32.917969 C -12.121094 -31.167969 -11.964844 -29.40625 -10.800781 -26.515625 C -10.589844 -26.035156 -10.402344 -25.597656 -10.195312 -25.222656 C -9.320312 -23.640625 -8.328125 -23.320312 -6.371094 -24.402344 Z M -6.371094 -24.402344 "/></g></g></g><g fill="#000000" fill-opacity="1"><g transform="translate(540.903984, 559.891102)"><g><path d="M 12.089844 -10.003906 C 15.011719 -12.511719 16.753906 -14.132812 18.683594 -15.976562 C 20.578125 -17.855469 21.253906 -19.625 19.445312 -22.898438 C 19.207031 -23.320312 18.964844 -23.675781 18.6875 -24 C 17.511719 -25.371094 16.164062 -25.40625 14.539062 -24.011719 C 13.277344 -22.929688 10.550781 -20.335938 7.234375 -17.488281 C 6.292969 -16.683594 5.363281 -15.945312 4.5 -15.269531 C 3.828125 -16.195312 3.070312 -17.300781 2.191406 -18.613281 L 7.574219 -23.296875 C 9.773438 -25.183594 9.824219 -27.171875 8.546875 -29.460938 C 8.25 -29.953125 7.949219 -30.449219 7.640625 -30.808594 C 6.402344 -32.253906 4.992188 -32.359375 3.082031 -30.71875 L -2.222656 -26.164062 C -2.878906 -27.292969 -3.378906 -28.242188 -3.886719 -29.125 L -3.417969 -29.527344 C 0.335938 -32.75 3.300781 -34.917969 6.375 -37.246094 C 9.496094 -39.671875 8.917969 -41.367188 7.566406 -44.03125 C 7.1875 -44.769531 6.792969 -45.375 6.390625 -45.84375 C 5.429688 -46.960938 4.460938 -47.066406 2.890625 -45.90625 C 0.714844 -44.351562 -2.359375 -42.089844 -6.863281 -38.285156 C -10.46875 -35.191406 -13.050781 -32.722656 -15.382812 -30.472656 C -17.714844 -28.15625 -17.414062 -26.785156 -15.691406 -24.191406 C -15.386719 -23.761719 -15.113281 -23.371094 -14.835938 -23.046875 C -13.75 -21.785156 -12.765625 -21.4375 -11.425781 -22.214844 C -10.085938 -19.851562 -8.527344 -17.304688 -7.402344 -15.265625 C -4.820312 -10.652344 -1.65625 -6.601562 -0.195312 -4.972656 C 1.085938 -3.625 3.167969 -3.097656 5.621094 -4.765625 C 7.046875 -5.734375 9.390625 -7.75 12.089844 -10.003906 Z M 12.089844 -10.003906 "/></g></g></g></svg>